# xmcd
#
# Track frame offsets: 
#        150
#        28744
#        51273
#        88880
#        132058
#        183440
#        214944
#        228882
#        261681
#        287101
#
# Disc length: 4428 seconds
#
# Revision: 2
# Processed by: cddbd v1.5.2PL0 Copyright (c) Steve Scherf et al.
# Submitted via: ExactAudioCopyFreeDBPlugin 1.0
#
DISCID=98114a0a
DTITLE=Slaughter, Karin - Verstummt
DYEAR=2009
DGENRE=Hörbuch
TTITLE0=39 Verstummt
TTITLE1=40 Verstummt
TTITLE2=41 Verstummt
TTITLE3=42 Verstummt
TTITLE4=43 Verstummt
TTITLE5=44 Verstummt
TTITLE6=45 Verstummt
TTITLE7=46 Verstummt
TTITLE8=47 Verstummt
TTITLE9=48 Verstummt
EXTD=
EXTT0=
EXTT1=
EXTT2=
EXTT3=
EXTT4=
EXTT5=
EXTT6=
EXTT7=
EXTT8=
EXTT9=
PLAYORDER=
